<?xml version="1.0" standalone="no"?>
<!DOCTYPE svg PUBLIC "-//W3C//DTD SVG 20010904//EN"
 "http://www.w3.org/TR/2001/REC-SVG-20010904/DTD/svg10.dtd">
<svg version="1.0" xmlns="http://www.w3.org/2000/svg"
 width="16.000000pt" height="16.000000pt" viewBox="0 0 16.000000 16.000000"
 preserveAspectRatio="xMidYMid meet">
<metadata>
Created by potrace 1.11, written by Peter Selinger 2001-2013
</metadata>
<g transform="translate(0.000000,16.000000) scale(0.002286,-0.002286)"
fill="#000000" stroke="none">
<path d="M2537 5624 c-1 -1 -24 -4 -52 -7 -100 -11 -239 -69 -340 -141 -99
-71 -171 -157 -403 -476 -130 -179 -240 -329 -245 -335 -4 -5 -85 -116 -178
-245 -94 -129 -197 -271 -229 -315 -32 -44 -104 -143 -159 -220 -55 -77 -105
-146 -111 -152 -16 -19 -200 -301 -200 -306 0 -3 -17 -34 -38 -68 -107 -177
-239 -457 -312 -664 -23 -66 -46 -129 -51 -140 -8 -18 -33 -112 -44 -160 -3
-11 -12 -49 -21 -84 -33 -132 -46 -235 -46 -374 0 -148 0 -152 24 -251 24 -99
48 -146 104 -206 48 -52 110 -83 189 -97 58 -10 5664 -9 5709 1 63 15 134 56
173 100 44 50 89 137 98 188 3 17 8 34 10 38 3 4 7 38 11 76 4 38 8 71 10 73
3 3 73 5 157 6 121 1 158 5 182 18 62 34 85 66 104 141 14 55 13 188 -1 250
-45 194 -81 298 -153 446 -79 160 -134 243 -429 648 -78 107 -148 203 -156
215 -78 114 -191 260 -227 294 -24 23 -73 56 -108 74 -56 27 -77 32 -172 36
-59 3 -109 9 -111 14 -2 4 -29 43 -61 86 -31 43 -108 148 -170 233 -62 85
-122 168 -134 183 -12 16 -35 48 -52 72 -16 24 -82 114 -145 200 -125 171
-145 198 -175 241 -78 114 -251 337 -291 376 -118 114 -286 202 -424 224 -35
6 -1526 13 -1533 8z"/>
</g>
</svg>
